<svg width="40" height="40" viewBox="0 0 40 40" fill="none" xmlns="http://www.w3.org/2000/svg">
<circle cx="12.2271" cy="31.0063" r="4.98991" transform="rotate(90 12.2271 31.0063)" fill="#3DC712"/>
<circle cx="6.56255" cy="11.8365" r="4.98991" transform="rotate(90 6.56255 11.8365)" fill="#3DC712"/>
<path d="M14.6055 13.3919C14.7023 12.8884 14.753 12.3684 14.753 11.8365C14.753 11.2732 14.6962 10.7232 14.5879 10.1919H15.3395C17.6959 10.1919 19.6061 12.1022 19.6061 14.4586V21.674C19.6061 22.2631 20.0837 22.7407 20.6728 22.7407H22.7258V12.6424C22.7258 10.286 24.6361 8.37578 26.9925 8.37578H29.0775L29.0776 4.00391L36.5065 9.99502L29.0774 15.9475L29.0775 11.5758H26.9925C26.4034 11.5758 25.9258 12.0533 25.9258 12.6424V22.7407H30.9984L30.9985 18.1799L38.4274 24.1711L30.9982 30.1235L30.9983 25.9407H25.9258V28.3057C25.9258 30.6621 24.0156 32.5724 21.6592 32.5724H20.4305C20.5287 32.0655 20.5801 31.5419 20.5801 31.0063C20.5801 30.4468 20.524 29.9004 20.4171 29.3724H21.6592C22.2483 29.3724 22.7258 28.8948 22.7258 28.3057V25.9407H20.6728C18.3164 25.9407 16.4061 24.0305 16.4061 21.674V14.4586C16.4061 13.8695 15.9286 13.3919 15.3395 13.3919H14.6055Z" fill="white"/>
</svg>
