<svg width="40" height="40" viewBox="0 0 40 40" fill="none" xmlns="http://www.w3.org/2000/svg">
<path fill-rule="evenodd" clip-rule="evenodd" d="M20 11.6834C15.4069 11.6834 11.6834 15.4069 11.6834 20C11.6834 24.5931 15.4069 28.3165 20 28.3165C24.5931 28.3165 28.3165 24.5931 28.3165 20C28.3165 15.4069 24.5931 11.6834 20 11.6834ZM8.35684 20C8.35684 13.5696 13.5696 8.35684 20 8.35684C26.4303 8.35684 31.6431 13.5696 31.6431 20C31.6431 26.4303 26.4303 31.6431 20 31.6431C13.5696 31.6431 8.35684 26.4303 8.35684 20Z" fill="white"/>
<path fill-rule="evenodd" clip-rule="evenodd" d="M20 5.03028C11.7324 5.03028 5.03027 11.7325 5.03027 20C5.03027 28.2676 11.7324 34.9697 20 34.9697C28.2676 34.9697 34.9697 28.2676 34.9697 20C34.9697 11.7325 28.2676 5.03028 20 5.03028ZM1.70366 20C1.70366 9.89522 9.89521 1.70367 20 1.70367C30.1048 1.70367 38.2963 9.89522 38.2963 20C38.2963 30.1048 30.1048 38.2963 20 38.2963C9.89521 38.2963 1.70366 30.1048 1.70366 20Z" fill="white"/>
<circle cx="20" cy="20.0002" r="4.98991" transform="rotate(90 20 20.0002)" fill="#67EF3E"/>
</svg>
