<svg width="697" height="722" viewBox="0 0 697 722" fill="none" xmlns="http://www.w3.org/2000/svg">
<path d="M348.798 717.46C263.627 717.46 223.733 696.101 207.718 683.658C201.197 678.592 198.587 670.502 198.587 662.244V559.813C198.587 559.813 222.711 545.163 265.477 520.406C308.243 495.649 307.482 436.396 256.662 406.324C161.601 350.072 113.537 251.057 113.537 75.4694" stroke="#67EF3E" stroke-width="8.67218"/>
<path d="M348.8 717.46C433.971 717.46 473.865 696.101 489.88 683.658C496.4 678.592 499.011 670.502 499.011 662.244V559.813C499.011 559.813 472.875 543.999 432.121 520.406C391.366 496.813 390.116 436.396 440.936 406.324C535.996 350.072 584.061 251.057 584.061 75.4694" stroke="#67EF3E" stroke-width="8.67218"/>
<path d="M117.845 147.307H85.5745C-12.8773 147.307 -36.2235 275.531 101.885 334.906C187.474 371.704 256.663 406.314 256.663 406.314" stroke="#67EF3E" stroke-width="8.67218"/>
<ellipse cx="348.797" cy="71.5121" rx="235.261" ry="66.5121" stroke="#67EF3E" stroke-width="8.67218"/>
<path d="M197.253 558.244C206.437 565.49 257.515 593.067 355.453 593.067" stroke="#67EF3E" stroke-width="8.67218"/>
<path d="M579.75 147.307H612.021C710.473 147.307 733.819 275.531 595.711 334.906C510.121 371.704 440.932 406.314 440.932 406.314" stroke="#67EF3E" stroke-width="8.67218"/>
<path d="M500.346 558.244C491.163 565.49 440.085 593.067 342.147 593.067" stroke="#67EF3E" stroke-width="8.67218"/>
<circle cx="116.902" cy="147.367" r="14.4673" fill="#273F2B"/>
<circle cx="116.902" cy="76.8275" r="14.4673" fill="#273F2B"/>
<circle cx="580.839" cy="76.5815" r="14.4673" fill="#273F2B"/>
<circle cx="580.839" cy="147.367" r="14.4673" fill="#273F2B"/>
<circle cx="14.4673" cy="14.4673" r="14.4673" transform="matrix(-1 0 0 1 225.992 365.896)" fill="#273F2B"/>
<circle cx="14.4673" cy="14.4673" r="14.4673" transform="matrix(-1 0 0 1 499.171 365.896)" fill="#273F2B"/>
<circle cx="14.4673" cy="14.4673" r="14.4673" transform="matrix(-1 0 0 1 214.203 546.974)" fill="#273F2B"/>
<circle cx="14.4673" cy="14.4673" r="14.4673" transform="matrix(-1 0 0 1 510.843 543.962)" fill="#273F2B"/>
</svg>
